<svg xmlns:xlink="http://www.w3.org/1999/xlink" width="135" height="153" viewBox="0 0 135 153" version="1.1"
     xmlns="http://www.w3.org/2000/svg">
    <title>logo v1</title>
    <desc>Created using Figma</desc>
    <g id="Canvas" transform="translate(1022 -347)">
        <g id="logo v1">
            <g id="Group">
                <g id="Union">
                    <use xlink:href="#path0_fill" transform="translate(-999.012 347.715)" fill="#CAF3E2"/>
                </g>
                <g id="Rectangle 3">
                    <use xlink:href="#path1_fill" transform="matrix(-1 0 0 1 -894 376)" fill="#55ABDF"/>
                </g>
                <g id="Rectangle 3">
                    <use xlink:href="#path1_fill" transform="matrix(-1 0 0 1 -894 359)" fill="#71D7E5"
                         fill-opacity="0.8"/>
                </g>
                <g id="Rectangle 3">
                    <use xlink:href="#path1_fill" transform="matrix(-1 0 0 1 -894 343)" fill="#C8F2CF"
                         fill-opacity="0.8"/>
                </g>
            </g>
            <g id="ecobox">
                <use xlink:href="#path2_fill" transform="translate(-1023 475)" fill="#505050"/>
            </g>
        </g>
    </g>
    <defs>
        <path id="path0_fill" fill-rule="evenodd"
              d="M 34.2623 3.81553C 41.2696 -1.27184 50.755 -1.27184 57.7623 3.81553L 83.7746 22.7005C 89.4696 26.8352 92.2338 33.2542 92.0123 39.5967L 92.0123 71.785C 90.8139 71.8947 78.2349 71.9227 62.7373 71.9147L 58.5007 75.3015C 51.1984 81.1391 40.8262 81.1391 33.5239 75.3015L 29.2206 71.8614C 20.1045 71.8401 12.0025 71.8173 6.63922 71.8022C 2.93133 71.7918 0.532407 71.785 0.0123267 71.785L 0.0123267 39.5967C -0.20917 33.2542 2.55505 26.8352 8.25006 22.7005L 34.2623 3.81553Z"/>
        <path id="path1_fill"
              d="M 47.25 8.53054C 54.2573 3.44319 63.7427 3.44319 70.75 8.53054L 96.7623 27.4155C 107.449 35.1739 107.815 50.976 97.5006 59.2218L 71.4884 80.0165C 64.1861 85.8541 53.8139 85.8541 46.5116 80.0165L 20.4994 59.2218C 10.1846 50.976 10.5514 35.1739 21.2377 27.4155L 47.25 8.53054Z"/>
        <path id="path2_fill"
              d="M 15.69 19.04L 17.43 19.94C 15.71 23.14 13.17 24.74 9.81 24.74C 7.41 24.74 5.43 23.92 3.87 22.28C 2.31 20.62 1.53 18.63 1.53 16.31C 1.53 13.99 2.31 12 3.87 10.34C 5.45 8.68 7.39 7.85 9.69 7.85C 12.01 7.85 13.95 8.62 15.51 10.16C 17.09 11.7 17.91 13.8 17.97 16.46L 3.63 16.46C 3.69 18.38 4.29 19.93 5.43 21.11C 6.59 22.27 7.99 22.85 9.63 22.85C 12.33 22.85 14.35 21.58 15.69 19.04ZM 15.69 14.69C 15.41 13.17 14.71 11.98 13.59 11.12C 12.47 10.26 11.18 9.83 9.72 9.83C 6.72 9.83 4.76 11.45 3.84 14.69L 15.69 14.69ZM 41.8617 11.57L 40.2417 12.59C 38.8417 10.73 36.9217 9.8 34.4817 9.8C 32.5617 9.8 30.9517 10.42 29.6517 11.66C 28.3517 12.88 27.7017 14.4 27.7017 16.22C 27.7017 18.04 28.3417 19.6 29.6217 20.9C 30.9017 22.2 32.5217 22.85 34.4817 22.85C 36.8217 22.85 38.7417 21.92 40.2417 20.06L 41.8617 21.14C 41.0617 22.3 39.9817 23.19 38.6217 23.81C 37.2817 24.43 35.8317 24.74 34.2717 24.74C 31.8117 24.74 29.7517 23.93 28.0917 22.31C 26.4517 20.69 25.6317 18.71 25.6317 16.37C 25.6317 14.03 26.4617 12.03 28.1217 10.37C 29.8017 8.69 31.9517 7.85 34.5717 7.85C 36.1117 7.85 37.5317 8.18 38.8317 8.84C 40.1517 9.5 41.1617 10.41 41.8617 11.57ZM 49.4655 16.34C 49.4655 14 50.2655 12 51.8655 10.34C 53.4855 8.68 55.4455 7.85 57.7455 7.85C 60.0655 7.85 62.0255 8.68 63.6255 10.34C 65.2455 12 66.0555 13.99 66.0555 16.31C 66.0555 18.63 65.2555 20.62 63.6555 22.28C 62.0755 23.92 60.1155 24.74 57.7755 24.74C 55.4355 24.74 53.4655 23.92 51.8655 22.28C 50.2655 20.62 49.4655 18.64 49.4655 16.34ZM 63.9855 16.37C 63.9855 14.61 63.3655 13.09 62.1255 11.81C 60.9055 10.51 59.4455 9.86 57.7455 9.86C 56.0655 9.86 54.6155 10.51 53.3955 11.81C 52.1755 13.09 51.5655 14.62 51.5655 16.4C 51.5655 18.18 52.1555 19.69 53.3355 20.93C 54.5155 22.17 55.9755 22.79 57.7155 22.79C 59.4755 22.79 60.9555 22.17 62.1555 20.93C 63.3755 19.67 63.9855 18.15 63.9855 16.37ZM 74.5238 24.2L 74.5238 2.12L 76.5338 2.12L 76.5338 11C 78.2738 8.9 80.4038 7.85 82.9238 7.85C 85.2038 7.85 87.1338 8.68 88.7138 10.34C 90.3138 11.98 91.1138 13.96 91.1138 16.28C 91.1138 18.6 90.3037 20.59 88.6837 22.25C 87.0638 23.91 85.1237 24.74 82.8637 24.74C 80.3438 24.74 78.2337 23.58 76.5338 21.26L 76.5338 24.2L 74.5238 24.2ZM 76.4137 16.13C 76.4137 17.99 77.0237 19.56 78.2437 20.84C 79.4638 22.12 80.9537 22.76 82.7138 22.76C 84.4738 22.76 85.9637 22.11 87.1838 20.81C 88.4238 19.51 89.0437 17.99 89.0437 16.25C 89.0437 14.49 88.4438 12.96 87.2437 11.66C 86.0438 10.36 84.5437 9.71 82.7437 9.71C 80.9437 9.71 79.4337 10.32 78.2137 11.54C 77.0138 12.76 76.4137 14.29 76.4137 16.13ZM 98.573 16.34C 98.573 14 99.373 12 100.973 10.34C 102.593 8.68 104.553 7.85 106.853 7.85C 109.173 7.85 111.133 8.68 112.733 10.34C 114.353 12 115.163 13.99 115.163 16.31C 115.163 18.63 114.363 20.62 112.763 22.28C 111.183 23.92 109.223 24.74 106.883 24.74C 104.543 24.74 102.573 23.92 100.973 22.28C 99.373 20.62 98.573 18.64 98.573 16.34ZM 113.093 16.37C 113.093 14.61 112.473 13.09 111.233 11.81C 110.013 10.51 108.553 9.86 106.853 9.86C 105.173 9.86 103.723 10.51 102.503 11.81C 101.283 13.09 100.673 14.62 100.673 16.4C 100.673 18.18 101.263 19.69 102.443 20.93C 103.623 22.17 105.083 22.79 106.823 22.79C 108.583 22.79 110.063 22.17 111.263 20.93C 112.483 19.67 113.093 18.15 113.093 16.37ZM 128.371 17.54L 123.751 24.2L 121.321 24.2L 127.141 15.8L 121.891 8.27L 124.351 8.27L 128.371 14.03L 132.361 8.27L 134.821 8.27L 129.601 15.77L 135.511 24.2L 133.021 24.2L 128.371 17.54Z"/>
    </defs>
</svg>
