<svg xmlns:xlink="http://www.w3.org/1999/xlink" width="600" height="600" viewBox="0 0 600 600" version="1.1"
     xmlns="http://www.w3.org/2000/svg">
    <title>logo v5</title>
    <desc>Created using Figma</desc>
    <g id="Canvas" transform="matrix(3 0 0 3 3879 -993)">
        <clipPath id="clip-0" clip-rule="evenodd">
            <path d="M -1293 331L -1093 331L -1093 531L -1293 531L -1293 331Z" fill="#FFFFFF"/>
        </clipPath>
        <g id="logo v5" clip-path="url(#clip-0)">
            <path d="M -1293 331L -1093 331L -1093 531L -1293 531L -1293 331Z" fill="#FFFFFF"/>
            <g id="logo v1">
                <g id="Group">
                    <g id="Union">
                        <use xlink:href="#path0_fill" transform="translate(-1239.01 335.715)" fill="#CAF3E2"/>
                    </g>
                    <g id="Rectangle 3">
                        <use xlink:href="#path1_fill" transform="matrix(-1 0 0 1 -1134 364)" fill="#55ABDF"/>
                    </g>
                    <g id="Rectangle 3">
                        <use xlink:href="#path1_fill" transform="matrix(-1 0 0 1 -1134 347)" fill="#71D7E5"
                             fill-opacity="0.8"/>
                    </g>
                    <g id="Rectangle 3">
                        <use xlink:href="#path1_fill" transform="matrix(-1 0 0 1 -1134 331)" fill="#C8F2CF"
                             fill-opacity="0.8"/>
                    </g>
                </g>
                <g id="ecobox">
                    <use xlink:href="#path2_fill" transform="translate(-1293 485)" fill="#505050"/>
                </g>
            </g>
        </g>
    </g>
    <defs>
        <path id="path0_fill" fill-rule="evenodd"
              d="M 34.2623 3.81551C 41.2696 -1.27184 50.755 -1.27184 57.7623 3.81551L 83.7746 22.7005C 89.4696 26.8351 92.2338 33.2543 92.0123 39.5968L 92.0123 71.785C 90.8139 71.8947 78.235 71.9227 62.7373 71.9147L 58.5007 75.3015C 51.1984 81.1391 40.8262 81.1391 33.5239 75.3015L 29.2206 71.8614C 20.1045 71.8401 12.0025 71.8173 6.63922 71.8022C 2.93133 71.7917 0.532407 71.785 0.0123267 71.785L 0.0123267 39.5968C -0.20917 33.2543 2.55505 26.8351 8.25006 22.7005L 34.2623 3.81551Z"/>
        <path id="path1_fill"
              d="M 47.25 8.53054C 54.2573 3.44319 63.7427 3.44319 70.75 8.53054L 96.7623 27.4155C 107.449 35.1739 107.815 50.976 97.5006 59.2218L 71.4884 80.0165C 64.1861 85.8541 53.8139 85.8541 46.5116 80.0165L 20.4994 59.2218C 10.1846 50.976 10.5514 35.1739 21.2377 27.4155L 47.25 8.53054Z"/>
        <path id="path2_fill"
              d="M 45.6324 3.04L 47.3724 3.94C 45.6524 7.14 43.1124 8.74 39.7524 8.74C 37.3524 8.74 35.3724 7.92 33.8124 6.28C 32.2524 4.62 31.4724 2.63 31.4724 0.31C 31.4724 -2.01 32.2524 -4 33.8124 -5.66C 35.3924 -7.32 37.3324 -8.15 39.6324 -8.15C 41.9524 -8.15 43.8924 -7.38 45.4524 -5.84C 47.0324 -4.3 47.8524 -2.2 47.9124 0.46L 33.5724 0.46C 33.6324 2.38 34.2324 3.93 35.3724 5.11C 36.5324 6.27 37.9324 6.85 39.5724 6.85C 42.2724 6.85 44.2924 5.58 45.6324 3.04ZM 45.6324 -1.31C 45.3524 -2.83 44.6524 -4.02 43.5324 -4.88C 42.4124 -5.74 41.1224 -6.17 39.6624 -6.17C 36.6624 -6.17 34.7024 -4.55 33.7824 -1.31L 45.6324 -1.31ZM 71.8041 -4.43L 70.1841 -3.41C 68.7841 -5.27 66.8641 -6.2 64.4241 -6.2C 62.5041 -6.2 60.8941 -5.58 59.5941 -4.34C 58.2941 -3.12 57.6441 -1.6 57.6441 0.22C 57.6441 2.04 58.2841 3.6 59.5641 4.9C 60.8441 6.2 62.4641 6.85 64.4241 6.85C 66.7641 6.85 68.6841 5.92 70.1841 4.06L 71.8041 5.14C 71.0041 6.3 69.9241 7.19 68.5641 7.81C 67.2241 8.43 65.7741 8.74 64.2141 8.74C 61.7541 8.74 59.6941 7.93 58.0341 6.31C 56.3941 4.69 55.5741 2.71 55.5741 0.37C 55.5741 -1.97 56.4041 -3.97 58.0641 -5.63C 59.7441 -7.31 61.8941 -8.15 64.5141 -8.15C 66.0541 -8.15 67.4741 -7.82 68.7741 -7.16C 70.0941 -6.5 71.1041 -5.59 71.8041 -4.43ZM 79.4079 0.34C 79.4079 -2 80.2079 -4 81.8079 -5.66C 83.4279 -7.32 85.3879 -8.15 87.6879 -8.15C 90.0079 -8.15 91.9679 -7.32 93.5679 -5.66C 95.1879 -4 95.9979 -2.01 95.9979 0.31C 95.9979 2.63 95.1979 4.62 93.5979 6.28C 92.0179 7.92 90.0579 8.74 87.7179 8.74C 85.3779 8.74 83.4079 7.92 81.8079 6.28C 80.2079 4.62 79.4079 2.64 79.4079 0.34ZM 93.9279 0.37C 93.9279 -1.39 93.3079 -2.91 92.0679 -4.19C 90.8479 -5.49 89.3879 -6.14 87.6879 -6.14C 86.0079 -6.14 84.5579 -5.49 83.3379 -4.19C 82.1179 -2.91 81.5079 -1.38 81.5079 0.4C 81.5079 2.18 82.0979 3.69 83.2779 4.93C 84.4579 6.17 85.9179 6.79 87.6579 6.79C 89.4179 6.79 90.8979 6.17 92.0979 4.93C 93.3179 3.67 93.9279 2.15 93.9279 0.37ZM 104.466 8.2L 104.466 -13.88L 106.476 -13.88L 106.476 -5C 108.216 -7.1 110.346 -8.15 112.866 -8.15C 115.146 -8.15 117.076 -7.32 118.656 -5.66C 120.256 -4.02 121.056 -2.04 121.056 0.28C 121.056 2.6 120.246 4.59 118.626 6.25C 117.006 7.91 115.066 8.74 112.806 8.74C 110.286 8.74 108.176 7.58 106.476 5.26L 106.476 8.2L 104.466 8.2ZM 106.356 0.13C 106.356 1.99 106.966 3.56 108.186 4.84C 109.406 6.12 110.896 6.76 112.656 6.76C 114.416 6.76 115.906 6.11 117.126 4.81C 118.366 3.51 118.986 1.99 118.986 0.25C 118.986 -1.51 118.386 -3.04 117.186 -4.34C 115.986 -5.64 114.486 -6.29 112.686 -6.29C 110.886 -6.29 109.376 -5.68 108.156 -4.46C 106.956 -3.24 106.356 -1.71 106.356 0.13ZM 128.515 0.34C 128.515 -2 129.315 -4 130.915 -5.66C 132.535 -7.32 134.495 -8.15 136.795 -8.15C 139.115 -8.15 141.075 -7.32 142.675 -5.66C 144.295 -4 145.105 -2.01 145.105 0.31C 145.105 2.63 144.305 4.62 142.705 6.28C 141.125 7.92 139.165 8.74 136.825 8.74C 134.485 8.74 132.515 7.92 130.915 6.28C 129.315 4.62 128.515 2.64 128.515 0.34ZM 143.035 0.37C 143.035 -1.39 142.415 -2.91 141.175 -4.19C 139.955 -5.49 138.495 -6.14 136.795 -6.14C 135.115 -6.14 133.665 -5.49 132.445 -4.19C 131.225 -2.91 130.615 -1.38 130.615 0.4C 130.615 2.18 131.205 3.69 132.385 4.93C 133.565 6.17 135.025 6.79 136.765 6.79C 138.525 6.79 140.005 6.17 141.205 4.93C 142.425 3.67 143.035 2.15 143.035 0.37ZM 158.314 1.54L 153.694 8.2L 151.264 8.2L 157.084 -0.2L 151.834 -7.73L 154.294 -7.73L 158.314 -1.97L 162.304 -7.73L 164.764 -7.73L 159.544 -0.23L 165.454 8.2L 162.964 8.2L 158.314 1.54Z"/>
    </defs>
</svg>
