<svg xmlns:xlink="http://www.w3.org/1999/xlink" width="600" height="600" viewBox="0 0 600 600" version="1.1"
     xmlns="http://www.w3.org/2000/svg">
    <title>logo v4</title>
    <desc>Created using Figma</desc>
    <g id="Canvas" transform="matrix(3 0 0 3 2439 -240)">
        <clipPath id="clip-0" clip-rule="evenodd">
            <path d="M -813 80L -613 80L -613 280L -813 280L -813 80Z" fill="#FFFFFF"/>
        </clipPath>
        <g id="logo v4" clip-path="url(#clip-0)">
            <path d="M -813 80L -613 80L -613 280L -813 280L -813 80Z" fill="#FFFFFF"/>
            <g id="logo v1">
                <g id="ecobox">
                    <use xlink:href="#path0_fill" transform="translate(-783 164)" fill="#6A6A6A"/>
                </g>
            </g>
            <g id="Rectangle">
                <mask id="mask0_outline_ins">
                    <use xlink:href="#path1_fill" fill="white"
                         transform="matrix(0.707107 -0.707107 0.707107 0.707107 -813 180)"/>
                </mask>
                <g mask="url(#mask0_outline_ins)">
                    <use xlink:href="#path2_stroke_2x" transform="matrix(0.707107 -0.707107 0.707107 0.707107 -813 180)"
                         fill="url(#paint1_linear)"/>
                </g>
            </g>
            <g id="Rectangle">
                <mask id="mask1_outline_ins">
                    <use xlink:href="#path1_fill" fill="white"
                         transform="matrix(1 -5.55112e-17 5.55112e-17 1 -783.711 109.289)"/>
                </mask>
                <g mask="url(#mask1_outline_ins)">
                    <use xlink:href="#path2_stroke_2x" transform="matrix(1 -5.55112e-17 5.55112e-17 1 -783.711 109.289)"
                         fill="url(#paint2_linear)"/>
                </g>
            </g>
            <g id="Rectangle">
                <mask id="mask2_outline_ins">
                    <use xlink:href="#path1_fill" fill="white"
                         transform="matrix(0.92388 -0.382683 0.382683 0.92388 -805.388 141.732)"/>
                </mask>
                <g mask="url(#mask2_outline_ins)">
                    <use xlink:href="#path2_stroke_2x"
                         transform="matrix(0.92388 -0.382683 0.382683 0.92388 -805.388 141.732)"
                         fill="url(#paint3_linear)"/>
                </g>
            </g>
            <g id="Rectangle">
                <mask id="mask3_outline_ins">
                    <use xlink:href="#path1_fill" fill="white"
                         transform="matrix(0.92388 0.382683 -0.382683 0.92388 -751.268 87.6121)"/>
                </mask>
                <g mask="url(#mask3_outline_ins)">
                    <use xlink:href="#path2_stroke_2x"
                         transform="matrix(0.92388 0.382683 -0.382683 0.92388 -751.268 87.6121)"
                         fill="url(#paint4_linear)"/>
                </g>
            </g>
        </g>
    </g>
    <defs>
        <linearGradient id="paint1_linear" x1="0" y1="0" x2="1" y2="0" gradientUnits="userSpaceOnUse"
                        gradientTransform="matrix(8.65956e-15 141.421 -141.421 8.65956e-15 141.421 -8.65956e-15)">
            <stop offset="0.0607735" stop-color="#6CBAE5"/>
            <stop offset="1" stop-color="#83E587"/>
        </linearGradient>
        <linearGradient id="paint2_linear" x1="0" y1="0" x2="1" y2="0" gradientUnits="userSpaceOnUse"
                        gradientTransform="matrix(8.65956e-15 141.421 -141.421 8.65956e-15 141.421 -8.65956e-15)">
            <stop offset="0.0607735" stop-color="#6CBAE5"/>
            <stop offset="1" stop-color="#83E587"/>
        </linearGradient>
        <linearGradient id="paint3_linear" x1="0" y1="0" x2="1" y2="0" gradientUnits="userSpaceOnUse"
                        gradientTransform="matrix(8.65956e-15 141.421 -141.421 8.65956e-15 141.421 -8.65956e-15)">
            <stop offset="0.0607735" stop-color="#6CBAE5"/>
            <stop offset="1" stop-color="#83E587"/>
        </linearGradient>
        <linearGradient id="paint4_linear" x1="0" y1="0" x2="1" y2="0" gradientUnits="userSpaceOnUse"
                        gradientTransform="matrix(8.65956e-15 141.421 -141.421 8.65956e-15 141.421 -8.65956e-15)">
            <stop offset="0.0607735" stop-color="#6CBAE5"/>
            <stop offset="1" stop-color="#83E587"/>
        </linearGradient>
        <path id="path0_fill"
              d="M 13.9482 13.3506C 13.04 13.3506 12.2344 13.4287 11.5312 13.585C 10.8281 13.7412 10.2275 13.9951 9.72949 14.3467C 9.24121 14.6885 8.86035 15.1328 8.58691 15.6797C 8.31348 16.2266 8.15723 16.8955 8.11816 17.6865L 19.1631 17.6865L 19.1631 16.8955C 19.1631 16.4072 19.0703 15.9482 18.8848 15.5186C 18.709 15.0889 18.416 14.7129 18.0059 14.3906C 17.5957 14.0684 17.0586 13.8145 16.3945 13.6289C 15.7305 13.4434 14.915 13.3506 13.9482 13.3506ZM 13.1865 23.2822C 14.1143 23.2822 14.9248 23.2236 15.6182 23.1064C 16.3115 22.9893 16.9072 22.8477 17.4053 22.6816C 17.9033 22.5156 18.3086 22.3447 18.6211 22.1689C 18.9434 21.9932 19.1924 21.8467 19.3682 21.7295C 19.4268 21.71 19.4658 21.7002 19.4854 21.7002C 19.5928 21.7002 19.6904 21.7539 19.7783 21.8613C 19.876 21.959 19.9248 22.0664 19.9248 22.1836C 19.9248 22.291 19.876 22.3789 19.7783 22.4473C 19.6904 22.5352 19.5 22.6719 19.207 22.8574C 18.9238 23.043 18.5137 23.2334 17.9766 23.4287C 17.4395 23.6143 16.7754 23.7803 15.9844 23.9268C 15.1934 24.0732 14.2559 24.1465 13.1719 24.1465C 12.0391 24.1465 11.0771 24.0049 10.2861 23.7217C 9.49512 23.4385 8.85059 23.043 8.35254 22.5352C 7.85449 22.0273 7.49316 21.417 7.26855 20.7041C 7.04395 19.9912 6.93164 19.21 6.93164 18.3604C 6.93164 17.2275 7.1123 16.2852 7.47363 15.5332C 7.83496 14.7813 8.32812 14.1807 8.95312 13.7314C 9.58789 13.2725 10.3301 12.9502 11.1797 12.7646C 12.0391 12.5791 12.9619 12.4863 13.9482 12.4863C 15.9795 12.4863 17.498 12.877 18.5039 13.6582C 19.5195 14.4297 20.0273 15.5381 20.0273 16.9834C 20.0273 17.1201 20.0176 17.2715 19.998 17.4375C 19.9785 17.6035 19.9492 17.7646 19.9102 17.9209C 19.8809 18.0674 19.8418 18.1943 19.793 18.3018C 19.7539 18.3994 19.7148 18.4482 19.6758 18.4482L 15.3691 18.4482L 8.10352 18.3018C 8.12305 19.21 8.24023 19.9814 8.45508 20.6162C 8.67969 21.2412 9.00195 21.7539 9.42188 22.1543C 9.85156 22.5449 10.3789 22.833 11.0039 23.0186C 11.6289 23.1943 12.3564 23.2822 13.1865 23.2822ZM 35.4111 13.3506C 34.2881 13.3506 33.3311 13.4434 32.54 13.6289C 31.749 13.8145 31.0996 14.1123 30.5918 14.5225C 30.0938 14.9229 29.7275 15.4404 29.4932 16.0752C 29.2588 16.71 29.1416 17.4717 29.1416 18.3604C 29.1416 19.2588 29.2686 20.0205 29.5225 20.6455C 29.7861 21.2705 30.1768 21.7783 30.6943 22.1689C 31.2217 22.5596 31.876 22.8428 32.6572 23.0186C 33.4385 23.1943 34.3516 23.2822 35.3965 23.2822C 35.8652 23.2822 36.3389 23.248 36.8174 23.1797C 37.3057 23.1113 37.7695 23.0283 38.209 22.9307C 38.6484 22.8232 39.0537 22.7061 39.4248 22.5791C 39.7959 22.4521 40.0986 22.3301 40.333 22.2129C 40.4795 22.1641 40.582 22.1396 40.6406 22.1396C 40.7676 22.1396 40.8652 22.1787 40.9336 22.2568C 41.0117 22.3252 41.0508 22.4131 41.0508 22.5205C 41.0508 22.5986 41.0264 22.6816 40.9775 22.7695C 40.9287 22.8477 40.8506 22.916 40.7432 22.9746C 39.8838 23.4141 38.9951 23.7217 38.0771 23.8975C 37.1592 24.0635 36.2705 24.1465 35.4111 24.1465C 34.2979 24.1465 33.2822 24.0586 32.3643 23.8828C 31.4561 23.707 30.6748 23.3994 30.0205 22.96C 29.376 22.5205 28.873 21.9297 28.5117 21.1875C 28.1504 20.4453 27.9697 19.5029 27.9697 18.3604C 27.9697 17.2275 28.1357 16.2852 28.4678 15.5332C 28.7998 14.7813 29.2832 14.1807 29.918 13.7314C 30.5527 13.2725 31.3291 12.9502 32.2471 12.7646C 33.1748 12.5791 34.2295 12.4863 35.4111 12.4863C 36.2705 12.4863 37.1592 12.5742 38.0771 12.75C 38.9951 12.916 39.8838 13.2188 40.7432 13.6582C 40.8506 13.7168 40.9287 13.79 40.9775 13.8779C 41.0264 13.9561 41.0508 14.0342 41.0508 14.1123C 41.0508 14.2197 41.0117 14.3125 40.9336 14.3906C 40.8652 14.459 40.7676 14.4932 40.6406 14.4932C 40.582 14.4932 40.4795 14.4687 40.333 14.4199C 40.0986 14.3027 39.7959 14.1807 39.4248 14.0537C 39.0537 13.9268 38.6484 13.8145 38.209 13.7168C 37.7695 13.6094 37.3057 13.5215 36.8174 13.4531C 36.3389 13.3848 35.8701 13.3506 35.4111 13.3506ZM 56.2588 24.1465C 54.9111 24.1465 53.7734 24.0146 52.8457 23.751C 51.918 23.4775 51.166 23.0918 50.5898 22.5938C 50.0234 22.0957 49.6133 21.4902 49.3594 20.7773C 49.1055 20.0645 48.9785 19.2588 48.9785 18.3604C 48.9785 17.3252 49.1201 16.4414 49.4033 15.709C 49.6963 14.9668 50.1406 14.3564 50.7363 13.8779C 51.3418 13.3994 52.0986 13.0479 53.0068 12.8232C 53.9248 12.5986 55.0088 12.4863 56.2588 12.4863C 57.5088 12.4863 58.5879 12.5986 59.4961 12.8232C 60.4141 13.0479 61.1709 13.3994 61.7666 13.8779C 62.3721 14.3564 62.8164 14.9668 63.0996 15.709C 63.3926 16.4414 63.5391 17.3252 63.5391 18.3604C 63.5391 19.2588 63.4121 20.0645 63.1582 20.7773C 62.9043 21.4902 62.4893 22.0957 61.9131 22.5938C 61.3467 23.0918 60.5996 23.4775 59.6719 23.751C 58.7441 24.0146 57.6064 24.1465 56.2588 24.1465ZM 56.2588 23.2822C 57.1475 23.2822 57.9141 23.2188 58.5586 23.0918C 59.2031 22.9551 59.75 22.7695 60.1992 22.5352C 60.6582 22.3008 61.0244 22.0273 61.2979 21.7148C 61.5811 21.4023 61.8008 21.0654 61.957 20.7041C 62.123 20.333 62.2305 19.9521 62.2793 19.5615C 62.3379 19.1611 62.3672 18.7607 62.3672 18.3604C 62.3672 17.4521 62.25 16.6807 62.0156 16.0459C 61.7812 15.4111 61.415 14.8936 60.917 14.4932C 60.4189 14.0928 59.7842 13.8047 59.0127 13.6289C 58.2412 13.4434 57.3232 13.3506 56.2588 13.3506C 55.1846 13.3506 54.2617 13.4434 53.4902 13.6289C 52.7285 13.8047 52.0986 14.0928 51.6006 14.4932C 51.1025 14.8936 50.7363 15.4111 50.502 16.0459C 50.2676 16.6807 50.1504 17.4521 50.1504 18.3604C 50.1504 18.7607 50.1748 19.1611 50.2236 19.5615C 50.2822 19.9521 50.3896 20.333 50.5459 20.7041C 50.7119 21.0654 50.9316 21.4023 51.2051 21.7148C 51.4883 22.0273 51.8545 22.3008 52.3037 22.5352C 52.7627 22.7695 53.3145 22.9551 53.959 23.0918C 54.6035 23.2188 55.3701 23.2822 56.2588 23.2822ZM 79.9336 12.4863C 80.8125 12.4863 81.6426 12.5791 82.4238 12.7646C 83.2148 12.9404 83.9033 13.248 84.4893 13.6875C 85.085 14.127 85.5537 14.7129 85.8955 15.4453C 86.2471 16.1777 86.4229 17.0957 86.4229 18.1992C 86.4229 19.293 86.2764 20.2207 85.9834 20.9824C 85.7002 21.7344 85.2803 22.3447 84.7236 22.8135C 84.1768 23.2822 83.498 23.624 82.6875 23.8389C 81.8867 24.0439 80.9688 24.1465 79.9336 24.1465C 79.1426 24.1465 78.415 24.0977 77.751 24C 77.0869 23.9023 76.4814 23.7803 75.9346 23.6338C 75.3975 23.4775 74.9141 23.3066 74.4844 23.1211C 74.0547 22.9355 73.6738 22.7549 73.3418 22.5791L 73.3418 22.9307C 73.3418 23.0771 73.3369 23.2139 73.3271 23.3408C 73.3174 23.4678 73.293 23.5801 73.2539 23.6777C 73.2148 23.7754 73.1562 23.8535 73.0781 23.9121C 73 23.9707 72.8877 24 72.7412 24C 72.5947 24 72.4824 23.9707 72.4043 23.9121C 72.3359 23.8535 72.2822 23.7754 72.2432 23.6777C 72.2041 23.5801 72.1797 23.4678 72.1699 23.3408C 72.1699 23.2139 72.1699 23.0771 72.1699 22.9307L 72.1699 8.39941C 72.1699 8.08691 72.2334 7.8916 72.3604 7.81348C 72.4971 7.72559 72.6387 7.68164 72.7852 7.68164C 72.9316 7.68164 73.0586 7.72559 73.166 7.81348C 73.2832 7.8916 73.3418 8.08691 73.3418 8.39941L 73.3418 15.4014C 73.4492 14.9912 73.6396 14.6348 73.9131 14.332C 74.1865 14.0195 74.5088 13.7559 74.8799 13.541C 75.2607 13.3262 75.6758 13.1504 76.125 13.0137C 76.5742 12.877 77.0234 12.7695 77.4727 12.6914C 77.9316 12.6133 78.3711 12.5596 78.791 12.5303C 79.2207 12.501 79.6016 12.4863 79.9336 12.4863ZM 79.9336 13.3506C 79.3477 13.3604 78.708 13.4092 78.0146 13.4971C 77.3213 13.5752 76.6572 13.7217 76.0225 13.9365C 75.3877 14.1514 74.8262 14.4492 74.3379 14.8301C 73.8496 15.2109 73.5176 15.709 73.3418 16.3242L 73.3418 21.9492C 73.7617 22.1055 74.2109 22.2666 74.6895 22.4326C 75.1777 22.5889 75.6953 22.7305 76.2422 22.8574C 76.7891 22.9844 77.3701 23.0869 77.9854 23.165C 78.6006 23.2432 79.25 23.2822 79.9336 23.2822C 80.8711 23.2822 81.6719 23.1846 82.3359 22.9893C 83.0098 22.7939 83.5615 22.4912 83.9912 22.0811C 84.4307 21.6611 84.748 21.1338 84.9434 20.499C 85.1484 19.8545 85.251 19.0879 85.251 18.1992C 85.251 17.2813 85.1094 16.5098 84.8262 15.8848C 84.5527 15.2598 84.1768 14.7617 83.6982 14.3906C 83.2197 14.0195 82.6533 13.7559 81.999 13.5996C 81.3545 13.4336 80.666 13.3506 79.9336 13.3506ZM 101.821 24.1465C 100.474 24.1465 99.3359 24.0146 98.4082 23.751C 97.4805 23.4775 96.7285 23.0918 96.1523 22.5938C 95.5859 22.0957 95.1758 21.4902 94.9219 20.7773C 94.668 20.0645 94.541 19.2588 94.541 18.3604C 94.541 17.3252 94.6826 16.4414 94.9658 15.709C 95.2588 14.9668 95.7031 14.3564 96.2988 13.8779C 96.9043 13.3994 97.6611 13.0479 98.5693 12.8232C 99.4873 12.5986 100.571 12.4863 101.821 12.4863C 103.071 12.4863 104.15 12.5986 105.059 12.8232C 105.977 13.0479 106.733 13.3994 107.329 13.8779C 107.935 14.3564 108.379 14.9668 108.662 15.709C 108.955 16.4414 109.102 17.3252 109.102 18.3604C 109.102 19.2588 108.975 20.0645 108.721 20.7773C 108.467 21.4902 108.052 22.0957 107.476 22.5938C 106.909 23.0918 106.162 23.4775 105.234 23.751C 104.307 24.0146 103.169 24.1465 101.821 24.1465ZM 101.821 23.2822C 102.71 23.2822 103.477 23.2188 104.121 23.0918C 104.766 22.9551 105.312 22.7695 105.762 22.5352C 106.221 22.3008 106.587 22.0273 106.86 21.7148C 107.144 21.4023 107.363 21.0654 107.52 20.7041C 107.686 20.333 107.793 19.9521 107.842 19.5615C 107.9 19.1611 107.93 18.7607 107.93 18.3604C 107.93 17.4521 107.812 16.6807 107.578 16.0459C 107.344 15.4111 106.978 14.8936 106.479 14.4932C 105.981 14.0928 105.347 13.8047 104.575 13.6289C 103.804 13.4434 102.886 13.3506 101.821 13.3506C 100.747 13.3506 99.8242 13.4434 99.0527 13.6289C 98.291 13.8047 97.6611 14.0928 97.1631 14.4932C 96.665 14.8936 96.2988 15.4111 96.0645 16.0459C 95.8301 16.6807 95.7129 17.4521 95.7129 18.3604C 95.7129 18.7607 95.7373 19.1611 95.7861 19.5615C 95.8447 19.9521 95.9521 20.333 96.1084 20.7041C 96.2744 21.0654 96.4941 21.4023 96.7676 21.7148C 97.0508 22.0273 97.417 22.3008 97.8662 22.5352C 98.3252 22.7695 98.877 22.9551 99.5215 23.0918C 100.166 23.2188 100.933 23.2822 101.821 23.2822ZM 128.865 22.9746C 129.08 23.1797 129.188 23.3896 129.188 23.6045C 129.188 23.8975 129.031 24.0439 128.719 24.0439C 128.553 24.0439 128.357 23.9463 128.133 23.751L 122.991 19.0635L 117.85 23.751C 117.723 23.8584 117.61 23.9365 117.513 23.9854C 117.425 24.0244 117.332 24.0439 117.234 24.0439C 116.932 24.0439 116.78 23.8926 116.78 23.5898C 116.78 23.3945 116.893 23.1895 117.117 22.9746L 122.2 18.3311L 117.059 13.7754C 116.863 13.6094 116.766 13.4287 116.766 13.2334C 116.766 13.1064 116.81 12.999 116.897 12.9111C 116.995 12.8232 117.112 12.7793 117.249 12.7793C 117.444 12.7793 117.645 12.8672 117.85 13.043L 122.991 17.6133L 128.133 13.043C 128.318 12.8672 128.514 12.7793 128.719 12.7793C 128.855 12.7793 128.968 12.8232 129.056 12.9111C 129.153 12.9893 129.202 13.0967 129.202 13.2334C 129.202 13.4189 129.109 13.5996 128.924 13.7754L 123.782 18.3311L 128.865 22.9746Z"/>
        <path id="path1_fill"
              d="M 0 20C 0 8.9543 8.9543 0 20 0L 121.421 0C 132.467 0 141.421 8.9543 141.421 20L 141.421 121.421C 141.421 132.467 132.467 141.421 121.421 141.421L 20 141.421C 8.9543 141.421 0 132.467 0 121.421L 0 20Z"/>
        <path id="path2_stroke_2x"
              d="M 20 1L 121.421 1L 121.421 -1L 20 -1L 20 1ZM 140.421 20L 140.421 121.421L 142.421 121.421L 142.421 20L 140.421 20ZM 121.421 140.421L 20 140.421L 20 142.421L 121.421 142.421L 121.421 140.421ZM 1 121.421L 1 20L -1 20L -1 121.421L 1 121.421ZM 20 -1C 8.40202 -1 -1 8.40202 -1 20L 1 20C 1 9.50659 9.50659 1 20 1L 20 -1ZM 121.421 1C 131.915 1 140.421 9.50659 140.421 20L 142.421 20C 142.421 8.40202 133.019 -1 121.421 -1L 121.421 1ZM 140.421 121.421C 140.421 131.915 131.915 140.421 121.421 140.421L 121.421 142.421C 133.019 142.421 142.421 133.019 142.421 121.421L 140.421 121.421ZM 20 140.421C 9.50659 140.421 1 131.915 1 121.421L -1 121.421C -1 133.019 8.40202 142.421 20 142.421L 20 140.421Z"/>
    </defs>
</svg>
